<svg width="28" height="29" fill="none" xmlns="http://www.w3.org/2000/svg"><g opacity=".5" filter="url(#filter0_d)"><circle cx="14.134" cy="14.5" r="3" stroke="#FA1E4E"/><path d="M22.73 12.415l.25.433-.25-.433zm.367-1.366l.433-.25-.433.25zm-1.94 2.274l-.25-.433.25.433zm0 2.358l-.25.433.25-.433zm-.525-.998l-.5-.014.5.014zm2.457 3.268l.433.25-.433-.25zm-.366-1.366l.25-.433-.25.433zm-2.5 4.33l-.25.433.25-.433zm1.366-.366l.433.25-.433-.25zm-2.941-.543l-.25.433.25-.433zm-1.413.208l-.239-.44.239.44zm-10.593.335l-.433.25.433-.25zm1.366.366l.25.433-.25-.433zm-.372-6.25l-.5.012.5-.012zm-.526.995l-.25-.433.25.433zm0-2.315l-.25.433.25-.433zM6.634 8.45l-.433-.25.433.25zm4.4.335l.238.44-.239-.44zm10.563-.335l-.433.25.433-.25zm-1.366-.366l-.25-.433.25.433zM12.634 5.5h3v-1h-3v1zm-.5 2.332V6h-1v1.832h1zM10.99 9.388c.093-.056.187-.11.282-.163l-.478-.878a6.98 6.98 0 00-.328.19l.524.851zm-3.24-.87l1.599.923.5-.866-1.599-.923-.5.866zm-2.183 2.781l1.5-2.598-.866-.5-1.5 2.598.866.5zm1.793 1.613l-1.61-.93-.5.866 1.61.93.5-.866zm.774 1.588c0-.05 0-.1.002-.149l-1-.024a7.11 7.11 0 00-.002.173h1zm.002.152a6.106 6.106 0 01-.002-.152h-1c0 .06 0 .118.002.177l1-.025zm-2.378 2.366l1.602-.925-.5-.866-1.602.925.5.866zm1.317 3.281l-1.5-2.598-.866.5 1.5 2.598.866-.5zm2.278-.738l-1.595.921.5.866 1.595-.92-.5-.867zm1.92.214a6.064 6.064 0 01-.28-.162l-.524.852c.107.066.215.128.325.188l.478-.878zm.86 3.225v-1.832h-1V23h1zm3.5.5h-3v1h3v-1zm.5-2.332V23h1v-1.832h-1zm1.127-1.546a6.074 6.074 0 01-.265.153l.478.878c.104-.056.207-.116.308-.178l-.521-.853zm3.212.86l-1.575-.91-.5.867 1.575.909.5-.866zm2.183-2.781l-1.5 2.598.866.5 1.5-2.598-.866-.5zm-1.749-1.587l1.566.904.5-.866-1.566-.904-.5.866zm-.773-1.614c0 .056 0 .113-.002.169l1 .027.002-.196h-1zm-.002-.165l.002.165h1c0-.064 0-.129-.003-.192l-1 .027zm2.349-2.353l-1.574.908.5.866 1.574-.908-.5-.866zm-1.317-3.281l1.5 2.598.866-.5-1.5-2.598-.866.5zM18.9 9.43l1.58-.912-.5-.866-1.58.912.5.866zm-1.905-.205c.09.05.18.101.268.155l.522-.853a6.99 6.99 0 00-.312-.18l-.478.878zM16.134 6v1.832h1V6h-1zm1.34 2.347c-.22-.12-.34-.323-.34-.515h-1c0 .614.373 1.127.862 1.393l.478-.878zm5.507 4.501a1.5 1.5 0 00.549-2.049l-.866.5a.5.5 0 01-.183.683l.5.866zm-1.85 1.46c-.006-.25.11-.455.276-.552l-.5-.866c-.532.308-.79.887-.775 1.445l1-.027zm.276.94c-.167-.096-.282-.302-.276-.551l-1-.028c-.015.558.244 1.138.776 1.445l.5-.866zm2.115 2.953a1.5 1.5 0 00-.55-2.05l-.5.867a.5.5 0 01.184.683l.866.5zm-3.55 3.147a1.5 1.5 0 002.05-.549l-.866-.5a.5.5 0 01-.683.183l-.5.866zm-2.19-.873c.213-.13.449-.133.616-.036l.5-.866c-.532-.307-1.162-.242-1.637.05l.521.852zm-.648.693c0-.192.12-.395.34-.515l-.478-.878c-.49.266-.862.779-.862 1.393h1zm-1.5 3.332a1.5 1.5 0 001.5-1.5h-1a.5.5 0 01-.5.5v1zm-4.5-1.5a1.5 1.5 0 001.5 1.5v-1a.5.5 0 01-.5-.5h-1zm-.34-2.347c.22.12.34.323.34.515h1c0-.614-.372-1.127-.862-1.393l-.478.878zM6.21 20.8a1.5 1.5 0 002.05.549l-.5-.866a.5.5 0 01-.684-.183l-.866.5zm-.95-4.647a1.5 1.5 0 00-.55 2.049l.866-.5a.5.5 0 01.183-.683l-.5-.866zm1.877-1.475c.007.249-.109.454-.276.55l.5.866c.532-.307.79-.884.776-1.44l-1 .024zm-.276-.9c.167.097.282.302.276.55l1 .024c.013-.556-.245-1.133-.776-1.44l-.5.867zM4.701 10.8a1.5 1.5 0 00.55 2.049l.5-.866a.5.5 0 01-.184-.683l-.866-.5zm3.55-3.147A1.5 1.5 0 006.2 8.2l.866.5a.5.5 0 01.683-.183l.5-.866zm2.215.885c-.213.132-.45.134-.617.038l-.5.866c.534.308 1.166.24 1.641-.053l-.524-.85zm.668-.705c0 .192-.12.395-.34.515l.478.878c.49-.266.862-.779.862-1.393h-1zm7.267.732c-.166.096-.402.093-.615-.037l-.522.853c.475.29 1.105.357 1.637.05l-.5-.866zM15.634 5.5a.5.5 0 01.5.5h1a1.5 1.5 0 00-1.5-1.5v1zM9.853 20.427c.167-.096.403-.093.616.038l.524-.852c-.475-.293-1.107-.36-1.64-.052l.5.866zM22.03 8.201a1.5 1.5 0 00-2.05-.55l.5.867a.5.5 0 01.684.183l.866-.5zM12.634 4.5a1.5 1.5 0 00-1.5 1.5h1a.5.5 0 01.5-.5v-1z" fill="#FA1E4E"/></g><defs><filter id="filter0_d" x=".5" y=".5" width="27.231" height="28" filterUnits="userSpaceOnUse" color-interpolation-filters="sRGB"><feFlood flood-opacity="0" result="BackgroundImageFix"/><feColorMatrix in="SourceAlpha" values="0 0 0 0 0 0 0 0 0 0 0 0 0 0 0 0 0 0 127 0"/><feOffset/><feGaussianBlur stdDeviation="2"/><feColorMatrix values="0 0 0 0 0.980392 0 0 0 0 0.117647 0 0 0 0 0.305882 0 0 0 0.5 0"/><feBlend in2="BackgroundImageFix" result="effect1_dropShadow"/><feBlend in="SourceGraphic" in2="effect1_dropShadow" result="shape"/></filter></defs></svg>