<svg width="16" height="15" fill="none" xmlns="http://www.w3.org/2000/svg"><g filter="url(#filter0_d)"><path d="M14.605 8.97V14h-2.916V9.307c0-1.179-.422-1.983-1.478-1.983-.805 0-1.285.542-1.496 1.066-.077.188-.096.449-.096.711V14H5.702s.039-7.948 0-8.772h2.916v1.244L8.6 6.5h.02v-.028c.387-.597 1.079-1.45 2.628-1.45 1.919 0 3.358 1.254 3.358 3.948zM2.65 1C1.653 1 1 1.655 1 2.515c0 .842.634 1.517 1.612 1.517h.02c1.017 0 1.65-.675 1.65-1.517C4.261 1.655 3.648 1 2.65 1zM1.173 14H4.09V5.228H1.173V14z" fill="#FA1E4E" fill-opacity=".7"/></g><defs><filter id="filter0_d" x="0" y="0" width="15.605" height="15" filterUnits="userSpaceOnUse" color-interpolation-filters="sRGB"><feFlood flood-opacity="0" result="BackgroundImageFix"/><feColorMatrix in="SourceAlpha" values="0 0 0 0 0 0 0 0 0 0 0 0 0 0 0 0 0 0 127 0"/><feOffset/><feGaussianBlur stdDeviation=".5"/><feColorMatrix values="0 0 0 0 0 0 0 0 0 0 0 0 0 0 0 0 0 0 0.25 0"/><feBlend in2="BackgroundImageFix" result="effect1_dropShadow"/><feBlend in="SourceGraphic" in2="effect1_dropShadow" result="shape"/></filter></defs></svg>