<svg width="14" height="14" fill="none" xmlns="http://www.w3.org/2000/svg"><g filter="url(#filter0_d)" fill="#FA1E4E" fill-opacity=".7"><path d="M9.688 1H4.311A3.315 3.315 0 001 4.312v5.376A3.315 3.315 0 004.311 13h5.377A3.315 3.315 0 0013 9.688V4.312A3.315 3.315 0 009.688 1zm2.247 8.688a2.25 2.25 0 01-2.247 2.247H4.311a2.25 2.25 0 01-2.246-2.247V4.312A2.25 2.25 0 014.31 2.065h5.377a2.25 2.25 0 012.247 2.247v5.376z"/><path d="M7 3.908A3.096 3.096 0 003.908 7 3.095 3.095 0 007 10.092 3.096 3.096 0 0010.092 7 3.096 3.096 0 007 3.908zm0 5.12A2.03 2.03 0 014.973 7 2.03 2.03 0 017 4.973 2.03 2.03 0 019.027 7 2.03 2.03 0 017 9.027zm3.222-6.023a.784.784 0 00-.781.781.787.787 0 00.78.78.788.788 0 00.553-.228.784.784 0 00-.552-1.333z"/></g><defs><filter id="filter0_d" x="0" y="0" width="14" height="14" filterUnits="userSpaceOnUse" color-interpolation-filters="sRGB"><feFlood flood-opacity="0" result="BackgroundImageFix"/><feColorMatrix in="SourceAlpha" values="0 0 0 0 0 0 0 0 0 0 0 0 0 0 0 0 0 0 127 0"/><feOffset/><feGaussianBlur stdDeviation=".5"/><feColorMatrix values="0 0 0 0 0 0 0 0 0 0 0 0 0 0 0 0 0 0 0.25 0"/><feBlend in2="BackgroundImageFix" result="effect1_dropShadow"/><feBlend in="SourceGraphic" in2="effect1_dropShadow" result="shape"/></filter></defs></svg>