<svg width="26" height="20" fill="none" xmlns="http://www.w3.org/2000/svg"><g filter="url(#filter0_d)"><mask id="path-1-inside-1" fill="#fff"><path fill-rule="evenodd" clip-rule="evenodd" d="M14.27 5a3.87 3.87 0 011.65-.885c1.643-.416 3.332.316 3.952 1.885a25.8 25.8 0 011.06 3.29c.285 1.168.41 2.26.454 3.18.077 1.629-1.13 2.96-2.703 3.358A3.83 3.83 0 0114.38 14h-3.385a3.749 3.749 0 01-4.137 1.91C5.234 15.558 3.975 14.197 4 12.527c.015-.956.096-2.055.321-3.126.235-1.12.603-2.27.962-3.255.584-1.598 2.264-2.41 3.933-2.047.674.147 1.27.466 1.752.902h3.303z"/></mask><path d="M15.92 4.115l-.246-.97.246.97zM14.27 5v1h.386l.286-.258L14.27 5zm5.602 1l-.93.367.93-.367zm1.06 3.29l.97-.238-.97.238zm.454 3.18l-.999.047.999-.047zm-2.703 3.358l.246.969-.246-.97zM14.38 14l.871-.49-.286-.51h-.585v1zm-3.385 0v-1h-.604l-.281.534.885.466zm-4.137 1.91l-.213.978.213-.977zM4 12.527l1 .015-1-.015zM4.321 9.4l.979.205-.98-.205zm.962-3.255l-.939-.343.94.343zm3.933-2.047l-.212.977.212-.977zM10.968 5l-.67.742.285.258h.385V5zm4.706-1.854A4.87 4.87 0 0013.6 4.258l1.342 1.484a2.87 2.87 0 011.223-.658l-.49-1.938zm5.128 2.487c-.829-2.1-3.065-3.01-5.128-2.487l.491 1.938c1.224-.31 2.367.245 2.776 1.284l1.86-.735zm1.1 3.42a26.785 26.785 0 00-1.1-3.42l-1.86.734c.359.912.734 2.001 1.018 3.161l1.942-.476zm.483 3.37a17.755 17.755 0 00-.483-3.37l-1.942.475c.268 1.094.386 2.122.427 2.99l1.998-.096zm-3.456 4.374c1.934-.49 3.56-2.175 3.456-4.375l-1.998.095c.05 1.059-.738 2.034-1.95 2.341l.492 1.939zm-5.421-2.307a4.829 4.829 0 005.42 2.307l-.49-1.939a2.83 2.83 0 01-3.187-1.348l-1.743.98zM14.38 13h-3.385v2h3.385v-2zm-7.735 3.888a4.749 4.749 0 005.235-2.422l-1.77-.932a2.749 2.749 0 01-3.04 1.4l-.425 1.954zM3 12.51c-.033 2.22 1.631 3.938 3.645 4.377l.426-1.954c-1.235-.27-2.087-1.272-2.07-2.393l-2-.03zm.343-3.317c-.242 1.153-.328 2.32-.343 3.317l2 .03c.014-.915.092-1.947.3-2.936l-1.957-.41zm1.001-3.392c-.369 1.01-.753 2.21-1.001 3.392l1.957.411c.222-1.055.572-2.157.923-3.117l-1.879-.686zM9.43 3.12c-2.101-.458-4.311.56-5.085 2.68l1.879.687c.393-1.076 1.544-1.682 2.78-1.413L9.43 3.12zm2.21 1.137A4.819 4.819 0 009.43 3.12l-.425 1.954c.496.108.935.343 1.293.667l1.342-1.484zM10.968 6h3.303V4h-3.303v2z" fill="#FA1E4E" mask="url(#path-1-inside-1)"/><circle cx="16.235" cy="10" r="1" fill="#FA1E4E"/><circle cx="9.235" cy="10" r="1" fill="#FA1E4E"/></g><defs><filter id="filter0_d" x="0" y="0" width="25.389" height="20" filterUnits="userSpaceOnUse" color-interpolation-filters="sRGB"><feFlood flood-opacity="0" result="BackgroundImageFix"/><feColorMatrix in="SourceAlpha" values="0 0 0 0 0 0 0 0 0 0 0 0 0 0 0 0 0 0 127 0"/><feOffset/><feGaussianBlur stdDeviation="2"/><feColorMatrix values="0 0 0 0 0.980392 0 0 0 0 0.117647 0 0 0 0 0.305882 0 0 0 0.5 0"/><feBlend in2="BackgroundImageFix" result="effect1_dropShadow"/><feBlend in="SourceGraphic" in2="effect1_dropShadow" result="shape"/></filter></defs></svg>