<svg width="33" height="33" fill="none" xmlns="http://www.w3.org/2000/svg"><g filter="url(#filter0_d)" fill="#FA1E4E"><path d="M24.072 24.906a8.022 8.022 0 01-4.408 1.337c-2.543 0-4.953-1.237-6.614-3.394l-.017-.021c-1.274-1.504-2.035-3.713-2.087-6.047v-.548c.052-2.348.813-4.557 2.104-6.082 1.66-2.157 4.072-3.394 6.614-3.394a8.03 8.03 0 014.409 1.338 11.33 11.33 0 013.742 8.405c0 3.2-1.364 6.261-3.743 8.406zm-8.111 2.896A11.295 11.295 0 015.184 16.5c0-6.239 5.076-11.315 11.326-11.315h.032c.99.004 1.965.137 2.905.39-2.833.068-5.496 1.463-7.32 3.832-1.446 1.707-2.308 4.185-2.367 6.813v.574c.059 2.609.918 5.082 2.359 6.79 1.84 2.383 4.5 3.774 7.328 3.841a11.405 11.405 0 01-3.488.377zm8.87-20.62A12.49 12.49 0 0016.501 4C9.607 4 4 9.608 4 16.5A12.478 12.478 0 0016.5 29c3.077 0 6.035-1.129 8.328-3.18l.002-.001A12.518 12.518 0 0029 16.5a12.52 12.52 0 00-4.169-9.318z"/><path d="M18.791 8.626c2.23 1.432 3.209 4.426 3.209 7.89 0 3.464-.98 6.459-3.209 7.89C22 24.407 24 20.73 24 16.517c0-4.212-2-7.89-5.209-7.89z"/></g><defs><filter id="filter0_d" x="0" y="0" width="33" height="33" filterUnits="userSpaceOnUse" color-interpolation-filters="sRGB"><feFlood flood-opacity="0" result="BackgroundImageFix"/><feColorMatrix in="SourceAlpha" values="0 0 0 0 0 0 0 0 0 0 0 0 0 0 0 0 0 0 127 0"/><feOffset/><feGaussianBlur stdDeviation="2"/><feColorMatrix values="0 0 0 0 0.980392 0 0 0 0 0.117647 0 0 0 0 0.305882 0 0 0 0.5 0"/><feBlend in2="BackgroundImageFix" result="effect1_dropShadow"/><feBlend in="SourceGraphic" in2="effect1_dropShadow" result="shape"/></filter></defs></svg>