<svg width="16" height="14" fill="none" xmlns="http://www.w3.org/2000/svg"><g filter="url(#filter0_d)"><path d="M15 2.347a5.97 5.97 0 01-1.654.453 2.854 2.854 0 001.263-1.586 5.737 5.737 0 01-1.82.694 2.87 2.87 0 00-4.965 1.963c0 .227.02.446.067.654a8.124 8.124 0 01-5.916-3.002 2.874 2.874 0 00.882 3.836 2.834 2.834 0 01-1.297-.353v.031c0 1.395.995 2.553 2.3 2.82a2.865 2.865 0 01-.753.095c-.184 0-.37-.01-.543-.05a2.897 2.897 0 002.681 2 5.767 5.767 0 01-3.558 1.224c-.236 0-.461-.01-.687-.039a8.08 8.08 0 004.403 1.288c5.282 0 8.169-4.375 8.169-8.167 0-.127-.004-.25-.01-.371A5.727 5.727 0 0015 2.347z" fill="#FA1E4E" fill-opacity=".7"/></g><defs><filter id="filter0_d" x="0" y="0" width="16" height="13.375" filterUnits="userSpaceOnUse" color-interpolation-filters="sRGB"><feFlood flood-opacity="0" result="BackgroundImageFix"/><feColorMatrix in="SourceAlpha" values="0 0 0 0 0 0 0 0 0 0 0 0 0 0 0 0 0 0 127 0"/><feOffset/><feGaussianBlur stdDeviation=".5"/><feColorMatrix values="0 0 0 0 0 0 0 0 0 0 0 0 0 0 0 0 0 0 0.25 0"/><feBlend in2="BackgroundImageFix" result="effect1_dropShadow"/><feBlend in="SourceGraphic" in2="effect1_dropShadow" result="shape"/></filter></defs></svg>